<svg width="26" height="23" viewBox="0 0 26 23" fill="none" xmlns="http://www.w3.org/2000/svg">
<path fill-rule="evenodd" clip-rule="evenodd" d="M13.084 0.230465C12.8875 0.23423 12.7002 0.314953 12.5626 0.4553C12.4249 0.595646 12.3478 0.784395 12.3479 0.98098V15.2469C12.3479 15.446 12.4269 15.6369 12.5677 15.7777C12.7084 15.9184 12.8993 15.9974 13.0983 15.9974C13.2974 15.9974 13.4883 15.9184 13.6291 15.7777C13.7698 15.6369 13.8488 15.446 13.8488 15.2469V0.98098C13.849 0.881297 13.829 0.782598 13.7905 0.690666C13.752 0.598722 13.6955 0.51539 13.6244 0.445519C13.5533 0.375647 13.4689 0.32065 13.3764 0.283727C13.2837 0.246804 13.1847 0.228693 13.085 0.230465H13.084ZM24.4402 4.5039C24.3421 4.50673 24.2457 4.52866 24.1561 4.56849L17.7152 7.44341C17.5835 7.50294 17.4717 7.59922 17.3932 7.7207C17.3149 7.84219 17.2732 7.98372 17.2732 8.12831C17.2732 8.2729 17.3149 8.41443 17.3932 8.53591C17.4717 8.6574 17.5835 8.75367 17.7152 8.81321L24.1561 11.6973C24.2529 11.7409 24.3576 11.7636 24.4637 11.764C24.6353 11.7635 24.8016 11.7041 24.9347 11.5959C25.0679 11.4877 25.16 11.3371 25.1955 11.1692C25.2312 11.0014 25.2082 10.8264 25.1304 10.6734C25.0527 10.5205 24.9248 10.3988 24.7682 10.3286L19.8612 8.12933L24.7682 5.93828C24.9494 5.85671 25.0909 5.70679 25.1621 5.52125C25.2332 5.3357 25.228 5.12958 25.1477 4.94785C25.0868 4.81225 24.9871 4.69773 24.8611 4.61873C24.7352 4.53971 24.5887 4.49975 24.4402 4.5039ZM1.03621 9.73527C1.14077 9.68575 1.25538 9.66107 1.37106 9.66317V9.66419C1.53457 9.66738 1.69257 9.7239 1.82101 9.82514C1.94946 9.92637 2.04132 10.0668 2.08262 10.225C2.86815 13.2341 4.62967 15.8976 7.09121 17.7983C9.55275 19.6989 12.5752 20.7293 15.6851 20.7281C15.8842 20.7281 16.0752 20.8072 16.2159 20.948C16.3567 21.0887 16.4357 21.2797 16.4357 21.4786C16.4357 21.6777 16.3567 21.8686 16.2159 22.0094C16.0752 22.1501 15.8842 22.2291 15.6851 22.2291C8.60245 22.2291 2.4107 17.4472 0.630797 10.6013C0.601853 10.4893 0.599201 10.3721 0.623048 10.2589C0.646895 10.1457 0.696595 10.0395 0.768267 9.94865C0.839939 9.85783 0.93164 9.78479 1.03621 9.73527Z" fill="white"/>
</svg>
